<svg width="12" height="13" viewBox="0 0 12 13" fill="none" xmlns="http://www.w3.org/2000/svg">
<path d="M11.25 5.33335H0.75M8.33333 0.666687V3.00002M3.66667 0.666687V3.00002M3.55 12.3334H8.45C9.43009 12.3334 9.92014 12.3334 10.2945 12.1426C10.6238 11.9748 10.8915 11.7071 11.0593 11.3778C11.25 11.0035 11.25 10.5134 11.25 9.53335V4.63335C11.25 3.65326 11.25 3.16322 11.0593 2.78887C10.8915 2.45959 10.6238 2.19187 10.2945 2.02409C9.92014 1.83335 9.43009 1.83335 8.45 1.83335H3.55C2.56991 1.83335 2.07986 1.83335 1.70552 2.02409C1.37623 2.19187 1.10852 2.45959 0.940739 2.78887C0.75 3.16322 0.75 3.65326 0.75 4.63335V9.53335C0.75 10.5134 0.75 11.0035 0.940739 11.3778C1.10852 11.7071 1.37623 11.9748 1.70552 12.1426C2.07986 12.3334 2.56991 12.3334 3.55 12.3334Z" stroke="#0A20E6" stroke-width="1.16667" stroke-linecap="round" stroke-linejoin="round"/>
</svg>
