<svg width="908" height="336" viewBox="0 0 908 336" fill="none" xmlns="http://www.w3.org/2000/svg">
<path d="M1061.43 85.3239C1024.49 -15.8465 863.543 -50.6712 753.546 -25.7564C626.789 2.96818 598.327 104.101 495.701 97.1378C402.055 90.8138 377.903 3.30346 310.032 3.21202C247.658 3.13091 164.758 76.8888 65.9743 375.36" stroke="#E1E4FE" stroke-width="0.938817" stroke-miterlimit="10"/>
<path d="M75.9007 385.528C173.615 91.2938 256.126 15.4547 318.838 12.9792C365.33 11.2056 391.806 50.545 434.069 76.6841C455.275 90.2567 479.519 98.3496 504.624 100.236C586.868 106.476 622.201 46.1839 700.254 6.86981C720.136 -3.21477 741.134 -10.9267 762.816 -16.1073C872.905 -42.7921 1030.33 -16.4363 1068.72 80.4518" stroke="#E1E4FE" stroke-width="0.938817" stroke-miterlimit="10"/>
<path d="M85.8378 395.655C182.487 105.677 264.559 27.786 327.487 22.7989C373.744 19.1368 400.807 56.2052 442.776 80.619C464.268 93.4792 488.412 101.262 513.367 103.373C594.576 110.23 630.961 54.9445 709.518 16.5767C729.473 6.78172 750.387 -0.92011 771.928 -6.40564C882.2 -34.5224 1036.01 -16.9915 1075.85 75.6141" stroke="#E1E4FE" stroke-width="0.938817" stroke-miterlimit="10"/>
<path d="M95.7487 405.751C191.307 120.09 272.999 40.1535 336.202 32.5853C382.269 27.0631 409.839 61.8398 451.572 84.5349C473.31 96.681 497.339 104.164 522.127 106.506C602.374 113.964 639.645 63.7025 718.799 26.2798C738.826 16.7252 759.678 9.00912 781.1 3.22676C891.495 -26.516 1041.73 -17.6122 1083.02 70.711" stroke="#E1E4FE" stroke-width="0.938817" stroke-miterlimit="10"/>
<path d="M105.679 415.936C200.16 134.477 281.407 52.5466 344.94 42.3859C390.766 35.0331 418.933 67.4988 460.401 88.425C482.399 99.8626 506.355 107.05 531.014 109.612C610.298 117.671 648.513 72.4401 728.297 35.9368C748.363 26.6814 769.112 18.985 790.36 12.9158C900.895 -18.4569 1047.56 -18.1621 1090.33 65.8749" stroke="#E1E4FE" stroke-width="0.938817" stroke-miterlimit="10"/>
<path d="M115.53 426.101C208.996 148.868 289.495 63.1824 353.674 52.1684C399.475 44.2565 428.001 73.0319 469.198 92.3409C491.441 103.044 515.323 109.936 539.847 112.729C618.168 121.39 657.291 81.1969 737.582 45.6579C757.694 36.6508 778.366 28.9487 799.468 22.5995C910.128 -10.475 1053.23 -18.7353 1097.46 61.0373" stroke="#E1E4FE" stroke-width="0.938817" stroke-miterlimit="10"/>
<path d="M125.542 436.231C217.853 163.273 298.25 77.4587 362.371 61.8647C407.707 51.0783 437.127 78.665 478.016 96.2707C500.482 106.239 524.294 112.842 548.684 115.865C626.042 125.126 666.123 89.942 746.94 55.3635C767.104 46.626 787.703 38.9293 808.656 32.3037C919.457 -2.40064 1058.97 -19.3419 1104.67 56.2022" stroke="#E1E4FE" stroke-width="0.938817" stroke-miterlimit="10"/>
<path d="M135.465 446.381C226.652 177.671 306.632 89.8198 371.128 71.7554C416.172 59.074 446.254 84.1288 486.827 100.165C509.497 109.388 533.247 115.694 557.505 118.929C633.887 128.813 674.934 98.6732 756.282 64.9973C775.215 57.1844 795.51 49.2307 817.824 41.9182C928.772 5.52612 1064.72 -19.8944 1111.87 51.3314" stroke="#E1E4FE" stroke-width="0.938817" stroke-miterlimit="10"/>
<path d="M145.388 456.53C235.545 192.069 315.056 102.379 379.836 81.5057C424.641 67.0876 455.404 89.6065 495.67 104.033C518.543 112.504 542.248 118.532 566.388 122.017C641.807 132.502 683.772 107.361 765.689 74.6734C784.758 67.0573 805.007 59.1511 827.076 51.5711C938.013 13.5439 1070.47 -20.465 1119.06 46.4603" stroke="#E1E4FE" stroke-width="0.938817" stroke-miterlimit="10"/>
<path d="M155.325 466.658C244.398 206.456 323.473 114.902 388.582 91.3422C433.133 75.2092 464.651 95.101 504.434 107.974C527.483 115.692 551.141 121.449 575.157 125.185C649.631 136.268 692.54 116.157 774.981 84.3366C794.096 76.9365 814.363 69.0265 836.191 61.1969C947.368 21.387 1076.2 -21.1436 1126.25 41.5173" stroke="#E1E4FE" stroke-width="0.938817" stroke-miterlimit="10"/>
<path d="M165.247 476.807C253.233 220.847 331.898 127.461 397.262 101.136C441.563 83.3064 473.757 100.551 513.217 111.912C536.431 118.849 560.056 124.326 583.954 128.311C657.447 139.998 701.296 124.9 784.318 94.1221C803.577 86.9546 823.786 79.0382 845.358 70.981C956.648 29.4152 1081.91 -21.6126 1133.45 36.7582" stroke="#E1E4FE" stroke-width="0.938817" stroke-miterlimit="10"/>
<path d="M175.169 486.957C262.09 235.252 340.358 140.012 406.032 110.911C450.104 91.3986 482.984 105.955 522.049 115.82C544.503 121.483 567.463 127.132 592.822 131.421C665.349 143.691 710.146 133.641 793.707 103.802C813.07 96.8571 833.24 88.9304 854.609 80.634C966.014 37.3124 1087.73 -22.2165 1140.71 31.8938" stroke="#E1E4FE" stroke-width="0.938817" stroke-miterlimit="10"/>
<path d="M185.093 497.106C270.959 249.711 348.701 152.626 414.753 120.715C458.593 99.502 492.205 111.323 530.864 119.732C553.678 124.697 576.63 130.046 601.656 134.538C673.231 147.464 718.939 142.376 803.061 113.49C822.532 106.785 842.68 98.8441 863.754 90.3098C975.247 45.2001 1093.44 -22.7975 1147.88 27.0483" stroke="#E1E4FE" stroke-width="0.938817" stroke-miterlimit="10"/>
<path d="M194.979 507.263C279.782 264.048 357.245 165.216 423.472 130.52C467.092 107.66 501.421 116.674 539.682 123.662C562.865 127.889 585.795 132.961 610.42 137.689C681.039 151.158 727.667 151.162 812.422 123.213C832.011 116.709 852.101 108.762 872.941 100.014C984.532 53.0768 1099.18 -23.386 1155.08 22.1955" stroke="#E1E4FE" stroke-width="0.938817" stroke-miterlimit="10"/>
<path d="M204.953 517.383C288.636 278.435 365.671 177.869 432.207 140.302C475.62 115.774 510.645 121.967 548.476 127.56C572.024 131.031 594.976 135.854 619.322 140.773C688.942 154.851 736.546 159.86 821.772 132.883C842.274 126.159 862.418 118.391 882.125 109.607C993.797 60.9389 1104.99 -23.9503 1162.28 17.3243" stroke="#E1E4FE" stroke-width="0.938817" stroke-miterlimit="10"/>
<path d="M214.875 527.533C297.493 292.84 374.229 190.437 440.869 150.1C484.08 123.921 519.809 127.253 557.308 131.468C581.217 134.166 604.155 138.747 628.155 143.891C696.83 158.566 745.36 168.609 831.09 142.578C851.631 136.131 871.736 128.368 891.28 119.337C1003.04 68.6933 1110.68 -24.5272 1169.49 12.3956" stroke="#E1E4FE" stroke-width="0.938817" stroke-miterlimit="10"/>
<path d="M224.798 537.682C306.328 307.231 382.814 203.131 449.656 159.871C492.637 132.085 529.074 132.48 566.101 135.366C590.367 137.272 613.303 141.665 636.969 147.012C704.664 162.292 754.152 177.344 840.479 152.259C861.054 146.064 881.12 138.288 900.496 128.997C1012.29 76.5776 1116.43 -25.0977 1176.71 7.61466" stroke="#E1E4FE" stroke-width="0.938817" stroke-miterlimit="10"/>
<path d="M234.739 547.828C315.2 321.707 391.244 215.801 458.377 169.676C501.209 140.227 538.278 137.683 574.898 139.281C599.586 140.345 622.465 144.562 645.803 150.13C712.527 165.975 762.948 186.097 849.837 161.964C870.442 156.012 890.47 148.221 909.68 138.684C1021.52 84.3896 1122.17 -25.6864 1183.91 2.76159" stroke="#E1E4FE" stroke-width="0.938817" stroke-miterlimit="10"/>
<path d="M244.661 557.977C323.948 336.042 399.789 228.485 467.126 179.53C509.781 148.463 547.475 142.943 583.735 143.301C608.731 143.602 631.69 147.576 654.658 153.355C720.427 169.838 771.785 194.954 859.205 171.724C879.839 166.015 899.833 158.208 918.875 148.424C1030.77 92.2378 1128.03 -26.1682 1191.13 -2.01938" stroke="#E1E4FE" stroke-width="0.938817" stroke-miterlimit="10"/>
<path d="M254.584 568.127C332.877 350.432 408.353 241.165 475.83 189.263C518.341 156.552 556.634 148.024 592.527 147.105C617.849 146.471 640.815 150.387 663.476 156.401C728.264 173.488 780.562 203.617 868.551 181.376C889.215 175.919 909.179 168.094 928.048 158.056C1039.96 99.928 1133.66 -26.8454 1198.32 -6.94427" stroke="#E1E4FE" stroke-width="0.938817" stroke-miterlimit="10"/>
<path d="M264.521 578.254C341.73 364.818 416.935 253.935 484.493 199.06C526.848 164.745 565.714 153.178 601.252 151.036C626.905 149.484 649.905 153.299 672.208 159.483C736.055 177.186 789.297 212.345 877.825 191.043C898.518 185.819 918.46 177.975 937.166 167.7C1048.97 107.505 1139.34 -27.4008 1205.48 -11.8077" stroke="#E1E4FE" stroke-width="0.938817" stroke-miterlimit="10"/>
<path d="M274.425 588.408C397.964 248.901 518.37 163.641 610.138 154.933C710.314 145.425 767.016 228.177 887.254 200.733C1028.3 168.52 1133.7 -29.9215 1212.72 -16.6682" stroke="#E1E4FE" stroke-width="0.938817" stroke-miterlimit="10"/>
</svg>
