<svg width="16" height="17" viewBox="0 0 16 17" fill="none" xmlns="http://www.w3.org/2000/svg">
<rect y="0.5" width="16" height="16" rx="4" fill="#0A20E6"/>
<path d="M7.64133 4.22666C7.75657 3.99319 7.81419 3.87645 7.89241 3.83916C7.96047 3.80671 8.03954 3.80671 8.1076 3.83916C8.18583 3.87645 8.24345 3.99319 8.35869 4.22666L9.45203 6.44164C9.48605 6.51057 9.50306 6.54503 9.52792 6.57179C9.54994 6.59548 9.57633 6.61467 9.60566 6.62831C9.63878 6.64371 9.6768 6.64927 9.75286 6.66039L12.1985 7.01785C12.456 7.0555 12.5848 7.07432 12.6444 7.13722C12.6962 7.19195 12.7206 7.26715 12.7108 7.34189C12.6994 7.42779 12.6062 7.51859 12.4197 7.70019L10.6507 9.42321C10.5956 9.47692 10.568 9.50378 10.5502 9.53573C10.5345 9.56402 10.5244 9.59511 10.5205 9.62725C10.5161 9.66356 10.5226 9.7015 10.5356 9.77737L10.953 12.2111C10.997 12.4677 11.019 12.5961 10.9776 12.6722C10.9417 12.7385 10.8777 12.785 10.8035 12.7987C10.7183 12.8145 10.6031 12.7539 10.3726 12.6327L8.18619 11.4829C8.11807 11.4471 8.08401 11.4292 8.04812 11.4221C8.01635 11.4159 7.98367 11.4159 7.9519 11.4221C7.91601 11.4292 7.88195 11.4471 7.81383 11.4829L5.62746 12.6327C5.39696 12.7539 5.28171 12.8145 5.19649 12.7987C5.12234 12.785 5.05836 12.7385 5.02237 12.6722C4.981 12.5961 5.00301 12.4677 5.04704 12.2111L5.46444 9.77737C5.47746 9.7015 5.48396 9.66356 5.47956 9.62725C5.47566 9.59511 5.46556 9.56402 5.4498 9.53573C5.43201 9.50378 5.40444 9.47692 5.34929 9.42321L3.58028 7.70019C3.39383 7.51859 3.30061 7.42779 3.28926 7.34189C3.27939 7.26715 3.30378 7.19195 3.35563 7.13722C3.41522 7.07432 3.54399 7.0555 3.80152 7.01785L6.24716 6.66039C6.32321 6.64927 6.36124 6.64371 6.39436 6.62831C6.42368 6.61467 6.45008 6.59548 6.47209 6.57179C6.49695 6.54503 6.51396 6.51057 6.54799 6.44164L7.64133 4.22666Z" fill="white"/>
</svg>
