<svg width="14" height="16" viewBox="0 0 14 16" fill="none" xmlns="http://www.w3.org/2000/svg">
<path d="M7.00004 10.5C4.35831 10.5 2.00904 11.7755 0.513367 13.755C0.191459 14.181 0.0305048 14.394 0.0357696 14.6819C0.0398372 14.9043 0.179506 15.1849 0.354511 15.3222C0.581028 15.5 0.894929 15.5 1.52273 15.5H12.4773C13.1051 15.5 13.4191 15.5 13.6456 15.3222C13.8206 15.1849 13.9602 14.9043 13.9643 14.6819C13.9696 14.394 13.8086 14.181 13.4867 13.755C11.991 11.7755 9.64177 10.5 7.00004 10.5Z" fill="#0A20E6"/>
<path d="M7.00004 8C9.07111 8 10.75 6.32107 10.75 4.25C10.75 2.17893 9.07111 0.5 7.00004 0.5C4.92897 0.5 3.25004 2.17893 3.25004 4.25C3.25004 6.32107 4.92897 8 7.00004 8Z" fill="#0A20E6"/>
</svg>
